<svg width="227" height="65" viewBox="0 0 227 65" fill="none" xmlns="http://www.w3.org/2000/svg">
<rect x="3" y="3" width="221" height="59" rx="29.5" fill="#C4C4C4"/>
<path d="M69.9688 39.4531H62.4297V25.1953H69.793V26.8164H64.2461V31.1914H69.5586V32.8125H64.2461V37.832H69.9688V39.4531ZM89.2406 39.4531H87.2289L81.8773 28.0859V39.4531H80.1391V25.1953H82.1508L87.5219 36.5625V25.1953H89.2406V39.4531ZM108.786 26.8164H104.782V39.4531H102.985V26.8164H98.9813V25.1953H108.786V26.8164ZM127.003 29.3164C127.003 29.9674 126.853 30.5599 126.554 31.0938C126.267 31.6276 125.903 32.0378 125.46 32.3242C125.07 32.5846 124.77 32.7474 124.562 32.8125C125.278 33.2161 125.838 33.9453 126.241 35C126.684 36.276 127.049 37.7604 127.335 39.4531H125.46C125.109 37.1094 124.666 35.5469 124.132 34.7656C123.533 33.9062 122.856 33.4766 122.101 33.4766H120.929V31.7969H122.12C122.537 31.7969 122.921 31.7578 123.273 31.6797C123.624 31.5885 123.937 31.4453 124.21 31.25C124.484 31.0677 124.711 30.8073 124.894 30.4688C125.089 30.1302 125.187 29.7461 125.187 29.3164C125.187 28.8477 125.089 28.4505 124.894 28.125C124.711 27.7995 124.477 27.5391 124.191 27.3438C123.904 27.1615 123.579 27.0247 123.214 26.9336C122.863 26.8424 122.517 26.7969 122.179 26.7969H120.343V39.4531H118.527V25.1953H122.179C122.778 25.1953 123.357 25.2734 123.917 25.4297C124.477 25.5729 124.978 25.7943 125.421 26.0938C125.903 26.4323 126.287 26.8555 126.573 27.3633C126.86 27.8711 127.003 28.5221 127.003 29.3164ZM146.998 39.4531H145.123L143.795 35.0781H139.263L137.955 39.4531H136.06L140.611 25.1953H142.466L146.998 39.4531ZM143.306 33.457L141.548 27.5977L139.771 33.457H143.306ZM165.059 29.3164C165.059 29.9674 164.909 30.5599 164.609 31.0938C164.323 31.6276 163.958 32.0378 163.516 32.3242C163.125 32.5846 162.826 32.7474 162.617 32.8125C163.333 33.2161 163.893 33.9453 164.297 35C164.74 36.276 165.104 37.7604 165.391 39.4531H163.516C163.164 37.1094 162.721 35.5469 162.188 34.7656C161.589 33.9062 160.911 33.4766 160.156 33.4766H158.984V31.7969H160.176C160.592 31.7969 160.977 31.7578 161.328 31.6797C161.68 31.5885 161.992 31.4453 162.266 31.25C162.539 31.0677 162.767 30.8073 162.949 30.4688C163.145 30.1302 163.242 29.7461 163.242 29.3164C163.242 28.8477 163.145 28.4505 162.949 28.125C162.767 27.7995 162.533 27.5391 162.246 27.3438C161.96 27.1615 161.634 27.0247 161.27 26.9336C160.918 26.8424 160.573 26.7969 160.234 26.7969H158.398V39.4531H156.582V25.1953H160.234C160.833 25.1953 161.413 25.2734 161.973 25.4297C162.533 25.5729 163.034 25.7943 163.477 26.0938C163.958 26.4323 164.342 26.8555 164.629 27.3633C164.915 27.8711 165.059 28.5221 165.059 29.3164Z" fill="#307E00"/>
<path d="M48 61.9542C22.8272 62.8849 2.74834 49.5112 3.00454 32.5103C2.65347 15.3226 22.7223 1.93872 48 3.06636" stroke="#1FAD1C" stroke-width="6"/>
<path d="M179 3.04579C204.173 2.11506 224.252 15.4888 223.995 32.4897C224.347 49.6774 204.278 63.0613 179 61.9336" stroke="#1FAD1C" stroke-width="6"/>
</svg>
