<svg width="706" height="90" viewBox="0 0 706 90" fill="none" xmlns="http://www.w3.org/2000/svg">
<path d="M62.0508 26.6641H50.6836C50.6836 23.3828 50.2148 20.7656 49.2773 18.8125C48.3398 16.8594 47.168 15.2188 45.7617 13.8906C44.2773 12.7188 42.5977 11.8203 40.7227 11.1953C38.9258 10.4922 37.1289 10.1016 35.332 10.0234C32.207 10.0234 29.1992 10.7266 26.3086 12.1328C23.4961 13.4609 20.957 15.5703 18.6914 18.4609C16.5039 21.4297 14.7461 25.2187 13.418 29.8281C12.168 34.3594 11.543 38.8906 11.543 43.4219C11.543 46.3906 11.8945 49.9453 12.5977 54.0859C13.3008 58.1484 14.6289 62.2109 16.582 66.2734C18.457 69.8672 21.1133 72.9922 24.5508 75.6484C28.0664 78.2266 32.5195 79.5156 37.9102 79.5156C40.8008 79.5156 43.5742 79.2031 46.2305 78.5781C48.8867 77.875 50.332 77.4062 50.5664 77.1719V51.2734H32.168V41.4297H61.3477V82.6797C57.3633 84.9453 53.3789 86.5859 49.3945 87.6016C45.4883 88.5391 40.918 89.0078 35.6836 89.0078C29.5117 89.0078 24.1992 87.6797 19.7461 85.0234C15.293 82.2891 11.582 78.7344 8.61328 74.3594C5.64453 69.9844 3.53516 65.1406 2.28516 59.8281C1.11328 54.5156 0.527344 49.0469 0.527344 43.4219C0.527344 37.7969 1.19141 32.4453 2.51953 27.3672C3.84766 22.2891 5.95703 17.7969 8.84766 13.8906C11.7383 10.0625 15.3711 6.89844 19.7461 4.39844C24.1992 1.89844 29.3945 0.648438 35.332 0.648438C38.9258 0.648438 42.3242 1.27344 45.5273 2.52344C48.8086 3.69531 51.6211 5.375 53.9648 7.5625C56.3867 9.82813 58.3398 12.4844 59.8242 15.5312C61.3086 18.5 62.0508 22.2109 62.0508 26.6641ZM126.855 26.8984C126.855 30.8047 125.957 34.3594 124.16 37.5625C122.441 40.7656 120.254 43.2266 117.598 44.9453C115.254 46.5078 113.457 47.4844 112.207 47.875C116.504 50.2969 119.863 54.6719 122.285 61C124.941 68.6562 127.129 77.5625 128.848 87.7188H117.598C115.488 73.6562 112.832 64.2812 109.629 59.5938C106.035 54.4375 101.973 51.8594 97.4414 51.8594H90.4102V41.7812H97.5586C100.059 41.7812 102.363 41.5469 104.473 41.0781C106.582 40.5312 108.457 39.6719 110.098 38.5C111.738 37.4062 113.105 35.8438 114.199 33.8125C115.371 31.7812 115.957 29.4766 115.957 26.8984C115.957 24.0859 115.371 21.7031 114.199 19.75C113.105 17.7969 111.699 16.2344 109.98 15.0625C108.262 13.9687 106.309 13.1484 104.121 12.6016C102.012 12.0547 99.9414 11.7812 97.9102 11.7812H86.8945V87.7188H75.9961V2.17188H97.9102C101.504 2.17188 104.98 2.64062 108.34 3.57812C111.699 4.4375 114.707 5.76562 117.363 7.5625C120.254 9.59375 122.559 12.1328 124.277 15.1797C125.996 18.2266 126.855 22.1328 126.855 26.8984ZM183.926 87.7188H138.691V2.17188H182.871V11.8984H149.59V38.1484H181.465V47.875H149.59V77.9922H183.926V87.7188ZM241.582 87.7188H196.348V2.17188H240.527V11.8984H207.246V38.1484H239.121V47.875H207.246V77.9922H241.582V87.7188ZM308.613 87.7188H296.543L264.434 19.5156V87.7188H254.004V2.17188H266.074L298.301 70.375V2.17188H308.613V87.7188ZM374.355 27.6016C374.355 31.9766 373.496 35.8828 371.777 39.3203C370.059 42.7578 367.832 45.4922 365.098 47.5234C362.363 49.3984 359.277 50.8047 355.84 51.7422C352.48 52.6016 348.965 53.0312 345.293 53.0312H337.91V42.9531H345.059C347.559 42.9531 349.863 42.7578 351.973 42.3672C354.16 41.8984 355.996 41.0391 357.48 39.7891C359.199 38.5391 360.605 36.8594 361.699 34.75C362.871 32.6406 363.457 30.2578 363.457 27.6016C363.457 24.3984 362.871 21.8203 361.699 19.8672C360.527 17.9141 359.121 16.3516 357.48 15.1797C355.762 13.9297 353.809 13.0703 351.621 12.6016C349.512 12.0547 347.441 11.7812 345.41 11.7812H334.395V87.7188H323.496V2.17188H345.41C349.004 2.17188 352.441 2.64062 355.723 3.57812C359.082 4.4375 362.129 5.76562 364.863 7.5625C367.754 9.4375 370.059 12.0937 371.777 15.5312C373.496 18.8906 374.355 22.9141 374.355 27.6016ZM440.566 44.8281C440.566 40.0625 439.941 35.4141 438.691 30.8828C437.52 26.3516 435.84 22.4844 433.652 19.2812C431.543 16.1563 428.965 13.8125 425.918 12.25C422.871 10.6094 419.746 9.78906 416.543 9.78906C413.34 9.78906 410.215 10.6094 407.168 12.25C404.121 13.8125 401.504 16.1563 399.316 19.2812C397.207 22.4844 395.527 26.3516 394.277 30.8828C393.105 35.4141 392.52 40.0625 392.52 44.8281C392.52 49.6719 393.105 54.3594 394.277 58.8906C395.527 63.3438 397.207 67.1328 399.316 70.2578C401.504 73.3828 404.121 75.7656 407.168 77.4062C410.215 78.9688 413.34 79.75 416.543 79.75C419.746 79.75 422.871 78.9688 425.918 77.4062C428.965 75.7656 431.543 73.3828 433.652 70.2578C435.84 67.1328 437.52 63.3438 438.691 58.8906C439.941 54.3594 440.566 49.6719 440.566 44.8281ZM451.465 44.8281C451.465 50.9219 450.645 56.7812 449.004 62.4062C447.363 67.9531 444.98 72.7188 441.855 76.7031C438.73 80.7656 434.902 83.8516 430.371 85.9609C425.918 87.9922 421.309 89.0078 416.543 89.0078C411.699 89.0078 407.051 87.9922 402.598 85.9609C398.145 83.8516 394.355 80.7656 391.23 76.7031C388.105 72.7188 385.723 67.9531 384.082 62.4062C382.441 56.7812 381.621 50.9219 381.621 44.8281C381.621 38.8125 382.441 33.0312 384.082 27.4844C385.723 21.8594 388.105 17.0156 391.23 12.9531C394.355 8.96875 398.145 5.92188 402.598 3.8125C407.051 1.70312 411.699 0.648438 416.543 0.648438C421.309 0.648438 425.918 1.70312 430.371 3.8125C434.902 5.92188 438.73 8.96875 441.855 12.9531C444.98 17.0156 447.363 21.8594 449.004 27.4844C450.645 33.0312 451.465 38.8125 451.465 44.8281ZM521.074 26.6641H509.707C509.707 23.3828 509.238 20.7656 508.301 18.8125C507.363 16.8594 506.191 15.2188 504.785 13.8906C503.301 12.7188 501.621 11.8203 499.746 11.1953C497.949 10.4922 496.152 10.1016 494.355 10.0234C491.23 10.0234 488.262 10.7266 485.449 12.1328C482.637 13.4609 480.059 15.5703 477.715 18.4609C475.527 21.4297 473.77 25.2187 472.441 29.8281C471.191 34.4375 470.566 39.0078 470.566 43.5391C470.566 46.5078 470.879 50.0625 471.504 54.2031C472.207 58.2656 473.574 62.3281 475.605 66.3906C477.637 70.0625 480.332 73.1875 483.691 75.7656C487.129 78.3438 491.543 79.6328 496.934 79.6328C500.762 79.6328 504.434 78.9688 507.949 77.6406C511.465 76.3125 514.941 74.3984 518.379 71.8984V83.6172C517.363 84.1641 516.23 84.75 514.98 85.375C513.809 86 512.285 86.5859 510.41 87.1328C505.801 88.4609 500.566 89.125 494.707 89.125C488.535 89.125 483.223 87.7969 478.77 85.1406C474.395 82.4844 470.684 78.9297 467.637 74.4766C464.59 70.1016 462.48 65.2578 461.309 59.9453C460.137 54.6328 459.551 49.1641 459.551 43.5391C459.551 37.9141 460.215 32.5625 461.543 27.4844C462.871 22.3281 464.98 17.7969 467.871 13.8906C470.762 10.0625 474.395 6.89844 478.77 4.39844C483.223 1.89844 488.418 0.648438 494.355 0.648438C497.949 0.648438 501.348 1.27344 504.551 2.52344C507.832 3.69531 510.645 5.375 512.988 7.5625C515.41 9.82813 517.363 12.4844 518.848 15.5312C520.332 18.5 521.074 22.2109 521.074 26.6641ZM587.402 87.7188H573.809L542.637 49.1641V87.7188H531.973V2.17188H542.637V37.2109L571.582 2.17188H584.59L551.074 42.3672L587.402 87.7188ZM639.551 87.7188H594.316V2.17188H638.496V11.8984H605.215V38.1484H637.09V47.875H605.215V77.9922H639.551V87.7188ZM705.762 11.8984H681.738V87.7188H670.957V11.8984H646.934V2.17188H705.762V11.8984Z" fill="#098707"/>
</svg>
